<mxfile host="www.draw.io" modified="2024-05-14T23:23:51.317Z" agent="Mozilla/5.0 (Windows NT 10.0; Win64; x64) AppleWebKit/537.36 (KHTML, like Gecko) Chrome/124.0.0.0 Safari/537.36" etag="ELtBa0na0wOIcuwwCKhk" version="24.4.0" type="device">
  <diagram name="Page-1" id="sjwZZAbMBC_qcONTL5A6">
    <mxGraphModel dx="2003" dy="1775" grid="1" gridSize="10" guides="1" tooltips="1" connect="1" arrows="1" fold="1" page="1" pageScale="1" pageWidth="827" pageHeight="1169" math="0" shadow="0">
      <root>
        <mxCell id="0" />
        <mxCell id="1" parent="0" />
        <mxCell id="IY0NlIKO4DgVQJvJD2Wd-11" value="" style="swimlane;startSize=0;strokeWidth=2;" parent="1" vertex="1">
          <mxGeometry x="-140" y="-170" width="900" height="1390" as="geometry" />
        </mxCell>
        <mxCell id="xuhbopW10TyVml0hYMAE-22" style="edgeStyle=orthogonalEdgeStyle;rounded=0;orthogonalLoop=1;jettySize=auto;html=1;exitX=0.5;exitY=1;exitDx=0;exitDy=0;entryX=0.5;entryY=0;entryDx=0;entryDy=0;strokeWidth=2;" parent="IY0NlIKO4DgVQJvJD2Wd-11" source="IY0NlIKO4DgVQJvJD2Wd-4" target="IY0NlIKO4DgVQJvJD2Wd-1" edge="1">
          <mxGeometry relative="1" as="geometry" />
        </mxCell>
        <mxCell id="IY0NlIKO4DgVQJvJD2Wd-4" value="pthread-barrier-initial-module" style="rounded=1;whiteSpace=wrap;html=1;fontSize=16;fontStyle=1;strokeWidth=2;" parent="IY0NlIKO4DgVQJvJD2Wd-11" vertex="1">
          <mxGeometry x="321.25" y="290" width="250" height="40" as="geometry" />
        </mxCell>
        <mxCell id="xuhbopW10TyVml0hYMAE-7" value="" style="edgeStyle=orthogonalEdgeStyle;rounded=0;orthogonalLoop=1;jettySize=auto;html=1;strokeWidth=2;" parent="IY0NlIKO4DgVQJvJD2Wd-11" source="IY0NlIKO4DgVQJvJD2Wd-1" target="IY0NlIKO4DgVQJvJD2Wd-7" edge="1">
          <mxGeometry relative="1" as="geometry" />
        </mxCell>
        <mxCell id="IY0NlIKO4DgVQJvJD2Wd-1" value="User input command" style="rounded=1;whiteSpace=wrap;html=1;fontSize=16;fontStyle=1;strokeWidth=2;" parent="IY0NlIKO4DgVQJvJD2Wd-11" vertex="1">
          <mxGeometry x="341.25" y="370" width="210" height="40" as="geometry" />
        </mxCell>
        <mxCell id="IY0NlIKO4DgVQJvJD2Wd-16" value="" style="edgeStyle=orthogonalEdgeStyle;rounded=0;orthogonalLoop=1;jettySize=auto;html=1;strokeWidth=2;" parent="IY0NlIKO4DgVQJvJD2Wd-11" source="IY0NlIKO4DgVQJvJD2Wd-6" target="IY0NlIKO4DgVQJvJD2Wd-14" edge="1">
          <mxGeometry relative="1" as="geometry" />
        </mxCell>
        <mxCell id="IY0NlIKO4DgVQJvJD2Wd-6" value="file-postfix-modification-module" style="rounded=1;whiteSpace=wrap;html=1;fontSize=16;fontStyle=1;strokeWidth=2;" parent="IY0NlIKO4DgVQJvJD2Wd-11" vertex="1">
          <mxGeometry x="306.25" y="595" width="280" height="30" as="geometry" />
        </mxCell>
        <mxCell id="xuhbopW10TyVml0hYMAE-9" value="" style="edgeStyle=orthogonalEdgeStyle;rounded=0;orthogonalLoop=1;jettySize=auto;html=1;strokeWidth=2;" parent="IY0NlIKO4DgVQJvJD2Wd-11" source="IY0NlIKO4DgVQJvJD2Wd-7" target="xuhbopW10TyVml0hYMAE-8" edge="1">
          <mxGeometry relative="1" as="geometry" />
        </mxCell>
        <mxCell id="IY0NlIKO4DgVQJvJD2Wd-7" value="Input file path" style="rounded=1;whiteSpace=wrap;html=1;fontSize=16;fontStyle=1;strokeWidth=2;" parent="IY0NlIKO4DgVQJvJD2Wd-11" vertex="1">
          <mxGeometry x="341.25" y="440" width="210" height="40" as="geometry" />
        </mxCell>
        <mxCell id="IY0NlIKO4DgVQJvJD2Wd-13" value="&lt;b&gt;&lt;font style=&quot;font-size: 16px;&quot;&gt;Main module for software process&lt;/font&gt;&lt;/b&gt;" style="text;html=1;align=center;verticalAlign=middle;resizable=0;points=[];autosize=1;strokeColor=none;fillColor=none;strokeWidth=2;" parent="IY0NlIKO4DgVQJvJD2Wd-11" vertex="1">
          <mxGeometry x="305" y="10" width="290" height="30" as="geometry" />
        </mxCell>
        <mxCell id="xuhbopW10TyVml0hYMAE-21" style="edgeStyle=orthogonalEdgeStyle;rounded=0;orthogonalLoop=1;jettySize=auto;html=1;exitX=0.5;exitY=1;exitDx=0;exitDy=0;entryX=0.5;entryY=0;entryDx=0;entryDy=0;strokeWidth=2;" parent="IY0NlIKO4DgVQJvJD2Wd-11" source="IY0NlIKO4DgVQJvJD2Wd-2" target="IY0NlIKO4DgVQJvJD2Wd-4" edge="1">
          <mxGeometry relative="1" as="geometry" />
        </mxCell>
        <mxCell id="IY0NlIKO4DgVQJvJD2Wd-2" value="pthread-mutex-module" style="rounded=1;whiteSpace=wrap;html=1;fontSize=16;fontStyle=1;strokeWidth=2;" parent="IY0NlIKO4DgVQJvJD2Wd-11" vertex="1">
          <mxGeometry x="341.25" y="220" width="210" height="40" as="geometry" />
        </mxCell>
        <mxCell id="IY0NlIKO4DgVQJvJD2Wd-17" value="" style="edgeStyle=orthogonalEdgeStyle;rounded=0;orthogonalLoop=1;jettySize=auto;html=1;strokeWidth=2;" parent="IY0NlIKO4DgVQJvJD2Wd-11" source="IY0NlIKO4DgVQJvJD2Wd-14" target="IY0NlIKO4DgVQJvJD2Wd-15" edge="1">
          <mxGeometry relative="1" as="geometry" />
        </mxCell>
        <mxCell id="IY0NlIKO4DgVQJvJD2Wd-14" value="pthread-barrier-destroy-module" style="rounded=1;whiteSpace=wrap;html=1;fontSize=16;fontStyle=1;strokeWidth=2;" parent="IY0NlIKO4DgVQJvJD2Wd-11" vertex="1">
          <mxGeometry x="306.25" y="660" width="280" height="40" as="geometry" />
        </mxCell>
        <mxCell id="WXw5R-1hBwhKUSwsiGa0-3" style="edgeStyle=orthogonalEdgeStyle;rounded=0;orthogonalLoop=1;jettySize=auto;html=1;exitX=0.5;exitY=1;exitDx=0;exitDy=0;entryX=0.5;entryY=0;entryDx=0;entryDy=0;strokeWidth=2;" edge="1" parent="IY0NlIKO4DgVQJvJD2Wd-11" source="IY0NlIKO4DgVQJvJD2Wd-15" target="IY0NlIKO4DgVQJvJD2Wd-22">
          <mxGeometry relative="1" as="geometry" />
        </mxCell>
        <mxCell id="WXw5R-1hBwhKUSwsiGa0-4" style="edgeStyle=orthogonalEdgeStyle;rounded=0;orthogonalLoop=1;jettySize=auto;html=1;exitX=0.5;exitY=1;exitDx=0;exitDy=0;entryX=0.5;entryY=0;entryDx=0;entryDy=0;strokeWidth=2;" edge="1" parent="IY0NlIKO4DgVQJvJD2Wd-11" source="IY0NlIKO4DgVQJvJD2Wd-15" target="xuhbopW10TyVml0hYMAE-27">
          <mxGeometry relative="1" as="geometry" />
        </mxCell>
        <mxCell id="IY0NlIKO4DgVQJvJD2Wd-15" value="pthread_initialization_module" style="rounded=1;whiteSpace=wrap;html=1;fontSize=16;fontStyle=1;strokeWidth=2;" parent="IY0NlIKO4DgVQJvJD2Wd-11" vertex="1">
          <mxGeometry x="308.75" y="730" width="275" height="40" as="geometry" />
        </mxCell>
        <mxCell id="WXw5R-1hBwhKUSwsiGa0-1" style="edgeStyle=orthogonalEdgeStyle;rounded=0;orthogonalLoop=1;jettySize=auto;html=1;exitX=0;exitY=0.5;exitDx=0;exitDy=0;entryX=0;entryY=0.5;entryDx=0;entryDy=0;strokeWidth=2;" edge="1" parent="IY0NlIKO4DgVQJvJD2Wd-11" source="xuhbopW10TyVml0hYMAE-1" target="xuhbopW10TyVml0hYMAE-15">
          <mxGeometry relative="1" as="geometry" />
        </mxCell>
        <mxCell id="xuhbopW10TyVml0hYMAE-1" value="db_link_list_module" style="rounded=1;whiteSpace=wrap;html=1;fontSize=16;fontStyle=1;strokeWidth=2;" parent="IY0NlIKO4DgVQJvJD2Wd-11" vertex="1">
          <mxGeometry x="30" y="360" width="210" height="40" as="geometry" />
        </mxCell>
        <mxCell id="xuhbopW10TyVml0hYMAE-10" value="" style="edgeStyle=orthogonalEdgeStyle;rounded=0;orthogonalLoop=1;jettySize=auto;html=1;strokeWidth=2;" parent="IY0NlIKO4DgVQJvJD2Wd-11" source="xuhbopW10TyVml0hYMAE-8" target="IY0NlIKO4DgVQJvJD2Wd-6" edge="1">
          <mxGeometry relative="1" as="geometry" />
        </mxCell>
        <mxCell id="xuhbopW10TyVml0hYMAE-8" value="file_path_redundancy_remove" style="rounded=1;whiteSpace=wrap;html=1;fontSize=16;fontStyle=1;strokeWidth=2;" parent="IY0NlIKO4DgVQJvJD2Wd-11" vertex="1">
          <mxGeometry x="303.75" y="510" width="285" height="40" as="geometry" />
        </mxCell>
        <mxCell id="xuhbopW10TyVml0hYMAE-56" style="edgeStyle=orthogonalEdgeStyle;rounded=0;orthogonalLoop=1;jettySize=auto;html=1;exitX=0.5;exitY=1;exitDx=0;exitDy=0;strokeWidth=2;" parent="IY0NlIKO4DgVQJvJD2Wd-11" source="xuhbopW10TyVml0hYMAE-15" target="IY0NlIKO4DgVQJvJD2Wd-32" edge="1">
          <mxGeometry relative="1" as="geometry" />
        </mxCell>
        <mxCell id="xuhbopW10TyVml0hYMAE-57" style="edgeStyle=orthogonalEdgeStyle;rounded=0;orthogonalLoop=1;jettySize=auto;html=1;exitX=0.5;exitY=1;exitDx=0;exitDy=0;strokeWidth=2;" parent="IY0NlIKO4DgVQJvJD2Wd-11" source="xuhbopW10TyVml0hYMAE-15" target="IY0NlIKO4DgVQJvJD2Wd-33" edge="1">
          <mxGeometry relative="1" as="geometry" />
        </mxCell>
        <mxCell id="xuhbopW10TyVml0hYMAE-15" value="remove_corresponding_data" style="rounded=1;whiteSpace=wrap;html=1;fontSize=16;fontStyle=1;strokeWidth=2;" parent="IY0NlIKO4DgVQJvJD2Wd-11" vertex="1">
          <mxGeometry x="326.25" y="1150" width="250" height="40" as="geometry" />
        </mxCell>
        <mxCell id="xuhbopW10TyVml0hYMAE-19" value="" style="edgeStyle=orthogonalEdgeStyle;rounded=0;orthogonalLoop=1;jettySize=auto;html=1;strokeWidth=2;" parent="IY0NlIKO4DgVQJvJD2Wd-11" source="xuhbopW10TyVml0hYMAE-18" target="xuhbopW10TyVml0hYMAE-1" edge="1">
          <mxGeometry relative="1" as="geometry" />
        </mxCell>
        <mxCell id="xuhbopW10TyVml0hYMAE-18" value="db_loading_module" style="rounded=1;whiteSpace=wrap;html=1;fontSize=16;fontStyle=1;strokeWidth=2;" parent="IY0NlIKO4DgVQJvJD2Wd-11" vertex="1">
          <mxGeometry x="30" y="240" width="210" height="40" as="geometry" />
        </mxCell>
        <mxCell id="xuhbopW10TyVml0hYMAE-46" style="edgeStyle=orthogonalEdgeStyle;rounded=0;orthogonalLoop=1;jettySize=auto;html=1;exitX=0.5;exitY=1;exitDx=0;exitDy=0;entryX=0.5;entryY=0;entryDx=0;entryDy=0;strokeWidth=2;" parent="IY0NlIKO4DgVQJvJD2Wd-11" source="IY0NlIKO4DgVQJvJD2Wd-22" target="IY0NlIKO4DgVQJvJD2Wd-28" edge="1">
          <mxGeometry relative="1" as="geometry" />
        </mxCell>
        <mxCell id="IY0NlIKO4DgVQJvJD2Wd-22" value="" style="swimlane;startSize=0;strokeWidth=2;" parent="IY0NlIKO4DgVQJvJD2Wd-11" vertex="1">
          <mxGeometry x="36.25" y="810" width="243.75" height="90" as="geometry" />
        </mxCell>
        <mxCell id="IY0NlIKO4DgVQJvJD2Wd-24" value="&lt;b&gt;&lt;font style=&quot;font-size: 16px;&quot;&gt;pthread-create-module&lt;/font&gt;&lt;/b&gt;" style="text;html=1;align=center;verticalAlign=middle;resizable=0;points=[];autosize=1;strokeColor=none;fillColor=none;strokeWidth=2;" parent="IY0NlIKO4DgVQJvJD2Wd-22" vertex="1">
          <mxGeometry x="13.75" y="10" width="210" height="30" as="geometry" />
        </mxCell>
        <mxCell id="IY0NlIKO4DgVQJvJD2Wd-25" value="process-file- module" style="rounded=1;whiteSpace=wrap;html=1;fontSize=16;fontStyle=1;strokeWidth=2;" parent="IY0NlIKO4DgVQJvJD2Wd-22" vertex="1">
          <mxGeometry x="13.75" y="40" width="210" height="40" as="geometry" />
        </mxCell>
        <mxCell id="xuhbopW10TyVml0hYMAE-47" style="edgeStyle=orthogonalEdgeStyle;rounded=0;orthogonalLoop=1;jettySize=auto;html=1;exitX=0.5;exitY=1;exitDx=0;exitDy=0;entryX=0.5;entryY=0;entryDx=0;entryDy=0;strokeWidth=2;" parent="IY0NlIKO4DgVQJvJD2Wd-11" source="xuhbopW10TyVml0hYMAE-27" target="IY0NlIKO4DgVQJvJD2Wd-28" edge="1">
          <mxGeometry relative="1" as="geometry" />
        </mxCell>
        <mxCell id="xuhbopW10TyVml0hYMAE-27" value="" style="swimlane;startSize=0;strokeWidth=2;" parent="IY0NlIKO4DgVQJvJD2Wd-11" vertex="1">
          <mxGeometry x="630" y="810" width="243.75" height="90" as="geometry" />
        </mxCell>
        <mxCell id="xuhbopW10TyVml0hYMAE-28" value="&lt;b&gt;&lt;font style=&quot;font-size: 16px;&quot;&gt;pthread-create-module&lt;/font&gt;&lt;/b&gt;" style="text;html=1;align=center;verticalAlign=middle;resizable=0;points=[];autosize=1;strokeColor=none;fillColor=none;strokeWidth=2;" parent="xuhbopW10TyVml0hYMAE-27" vertex="1">
          <mxGeometry x="13.75" y="10" width="210" height="30" as="geometry" />
        </mxCell>
        <mxCell id="xuhbopW10TyVml0hYMAE-29" value="process-file- module" style="rounded=1;whiteSpace=wrap;html=1;fontSize=16;fontStyle=1;strokeWidth=2;" parent="xuhbopW10TyVml0hYMAE-27" vertex="1">
          <mxGeometry x="13.75" y="40" width="210" height="40" as="geometry" />
        </mxCell>
        <mxCell id="xuhbopW10TyVml0hYMAE-40" value="" style="endArrow=none;dashed=1;html=1;dashPattern=1 3;strokeWidth=2;rounded=0;exitX=1;exitY=0.5;exitDx=0;exitDy=0;entryX=0;entryY=0.5;entryDx=0;entryDy=0;" parent="IY0NlIKO4DgVQJvJD2Wd-11" source="IY0NlIKO4DgVQJvJD2Wd-22" target="xuhbopW10TyVml0hYMAE-27" edge="1">
          <mxGeometry width="50" height="50" relative="1" as="geometry">
            <mxPoint x="390" y="900" as="sourcePoint" />
            <mxPoint x="440" y="850" as="targetPoint" />
          </mxGeometry>
        </mxCell>
        <mxCell id="xuhbopW10TyVml0hYMAE-41" value="&lt;b&gt;&lt;font style=&quot;font-size: 23px;&quot;&gt;Multiple Threads Created&lt;/font&gt;&lt;/b&gt;" style="text;html=1;align=center;verticalAlign=middle;resizable=0;points=[];autosize=1;strokeColor=none;fillColor=none;strokeWidth=2;" parent="IY0NlIKO4DgVQJvJD2Wd-11" vertex="1">
          <mxGeometry x="305" y="870" width="300" height="40" as="geometry" />
        </mxCell>
        <mxCell id="xuhbopW10TyVml0hYMAE-51" value="" style="edgeStyle=orthogonalEdgeStyle;rounded=0;orthogonalLoop=1;jettySize=auto;html=1;strokeWidth=2;" parent="IY0NlIKO4DgVQJvJD2Wd-11" source="IY0NlIKO4DgVQJvJD2Wd-28" target="xuhbopW10TyVml0hYMAE-44" edge="1">
          <mxGeometry relative="1" as="geometry" />
        </mxCell>
        <mxCell id="IY0NlIKO4DgVQJvJD2Wd-28" value="pthread-barrier-wait" style="rounded=1;whiteSpace=wrap;html=1;fontSize=16;fontStyle=1;strokeWidth=2;" parent="IY0NlIKO4DgVQJvJD2Wd-11" vertex="1">
          <mxGeometry x="346.25" y="940" width="210" height="40" as="geometry" />
        </mxCell>
        <mxCell id="xuhbopW10TyVml0hYMAE-55" value="" style="edgeStyle=orthogonalEdgeStyle;rounded=0;orthogonalLoop=1;jettySize=auto;html=1;strokeWidth=2;" parent="IY0NlIKO4DgVQJvJD2Wd-11" source="IY0NlIKO4DgVQJvJD2Wd-30" target="xuhbopW10TyVml0hYMAE-15" edge="1">
          <mxGeometry relative="1" as="geometry" />
        </mxCell>
        <mxCell id="IY0NlIKO4DgVQJvJD2Wd-30" value="process-time-calculation" style="rounded=1;whiteSpace=wrap;html=1;fontSize=16;fontStyle=1;strokeWidth=2;" parent="IY0NlIKO4DgVQJvJD2Wd-11" vertex="1">
          <mxGeometry x="346.25" y="1080" width="210" height="40" as="geometry" />
        </mxCell>
        <mxCell id="IY0NlIKO4DgVQJvJD2Wd-32" value="pthread-barreir-destroy" style="rounded=1;whiteSpace=wrap;html=1;fontSize=16;fontStyle=1;strokeWidth=2;" parent="IY0NlIKO4DgVQJvJD2Wd-11" vertex="1">
          <mxGeometry x="186.25" y="1250" width="210" height="40" as="geometry" />
        </mxCell>
        <mxCell id="IY0NlIKO4DgVQJvJD2Wd-33" value="pthread-mutext-destroy" style="rounded=1;whiteSpace=wrap;html=1;fontSize=16;fontStyle=1;strokeWidth=2;" parent="IY0NlIKO4DgVQJvJD2Wd-11" vertex="1">
          <mxGeometry x="506.25" y="1250" width="210" height="40" as="geometry" />
        </mxCell>
        <mxCell id="xuhbopW10TyVml0hYMAE-52" style="edgeStyle=orthogonalEdgeStyle;rounded=0;orthogonalLoop=1;jettySize=auto;html=1;exitX=0.5;exitY=1;exitDx=0;exitDy=0;entryX=0.5;entryY=0;entryDx=0;entryDy=0;strokeWidth=2;" parent="IY0NlIKO4DgVQJvJD2Wd-11" source="xuhbopW10TyVml0hYMAE-44" target="IY0NlIKO4DgVQJvJD2Wd-30" edge="1">
          <mxGeometry relative="1" as="geometry" />
        </mxCell>
        <mxCell id="xuhbopW10TyVml0hYMAE-44" value="pthread_join" style="rounded=1;whiteSpace=wrap;html=1;fontSize=16;fontStyle=1;strokeWidth=2;" parent="IY0NlIKO4DgVQJvJD2Wd-11" vertex="1">
          <mxGeometry x="371.25" y="1010" width="160" height="40" as="geometry" />
        </mxCell>
        <mxCell id="WXw5R-1hBwhKUSwsiGa0-5" style="edgeStyle=orthogonalEdgeStyle;rounded=0;orthogonalLoop=1;jettySize=auto;html=1;exitX=0.5;exitY=1;exitDx=0;exitDy=0;entryX=0.75;entryY=0;entryDx=0;entryDy=0;strokeWidth=2;" edge="1" parent="IY0NlIKO4DgVQJvJD2Wd-11" source="WXw5R-1hBwhKUSwsiGa0-2" target="xuhbopW10TyVml0hYMAE-27">
          <mxGeometry relative="1" as="geometry">
            <Array as="points">
              <mxPoint x="446" y="200" />
              <mxPoint x="813" y="200" />
            </Array>
          </mxGeometry>
        </mxCell>
        <mxCell id="WXw5R-1hBwhKUSwsiGa0-6" style="edgeStyle=orthogonalEdgeStyle;rounded=0;orthogonalLoop=1;jettySize=auto;html=1;exitX=0.5;exitY=1;exitDx=0;exitDy=0;entryX=0.25;entryY=0;entryDx=0;entryDy=0;strokeWidth=2;" edge="1" parent="IY0NlIKO4DgVQJvJD2Wd-11" source="WXw5R-1hBwhKUSwsiGa0-2" target="IY0NlIKO4DgVQJvJD2Wd-22">
          <mxGeometry relative="1" as="geometry">
            <Array as="points">
              <mxPoint x="446" y="200" />
              <mxPoint x="290" y="200" />
              <mxPoint x="290" y="490" />
              <mxPoint x="97" y="490" />
            </Array>
          </mxGeometry>
        </mxCell>
        <mxCell id="WXw5R-1hBwhKUSwsiGa0-2" value="System On Call Module&lt;div&gt;&lt;span style=&quot;font-weight: normal;&quot;&gt;I/O Handling,&amp;nbsp;&lt;/span&gt;&lt;span style=&quot;font-weight: normal; background-color: initial;&quot;&gt;Functions Calls,&amp;nbsp;&lt;/span&gt;&lt;span style=&quot;font-weight: normal; background-color: initial;&quot;&gt;Library Usage, system time calculation&lt;/span&gt;&lt;/div&gt;&lt;div&gt;&lt;span style=&quot;font-weight: normal; background-color: initial;&quot;&gt;program runtime calculation&lt;/span&gt;&lt;/div&gt;" style="rounded=1;whiteSpace=wrap;html=1;fontSize=16;fontStyle=1;strokeWidth=2;" vertex="1" parent="IY0NlIKO4DgVQJvJD2Wd-11">
          <mxGeometry x="201.25" y="70" width="490" height="100" as="geometry" />
        </mxCell>
        <mxCell id="IY0NlIKO4DgVQJvJD2Wd-39" value="End of the encryption/decryption" style="rounded=1;whiteSpace=wrap;html=1;fontSize=16;fontStyle=1;strokeWidth=2;" parent="1" vertex="1">
          <mxGeometry x="210" y="1249" width="210" height="40" as="geometry" />
        </mxCell>
        <mxCell id="IY0NlIKO4DgVQJvJD2Wd-36" style="edgeStyle=orthogonalEdgeStyle;rounded=0;orthogonalLoop=1;jettySize=auto;html=1;exitX=0.5;exitY=1;exitDx=0;exitDy=0;entryX=0.5;entryY=0;entryDx=0;entryDy=0;strokeWidth=2;" parent="1" source="IY0NlIKO4DgVQJvJD2Wd-32" target="IY0NlIKO4DgVQJvJD2Wd-39" edge="1">
          <mxGeometry relative="1" as="geometry">
            <mxPoint x="265" y="1230" as="targetPoint" />
          </mxGeometry>
        </mxCell>
        <mxCell id="IY0NlIKO4DgVQJvJD2Wd-38" style="edgeStyle=orthogonalEdgeStyle;rounded=0;orthogonalLoop=1;jettySize=auto;html=1;exitX=0.5;exitY=1;exitDx=0;exitDy=0;entryX=0.5;entryY=0;entryDx=0;entryDy=0;strokeWidth=2;" parent="1" source="IY0NlIKO4DgVQJvJD2Wd-33" target="IY0NlIKO4DgVQJvJD2Wd-39" edge="1">
          <mxGeometry relative="1" as="geometry">
            <mxPoint x="265" y="1230" as="targetPoint" />
          </mxGeometry>
        </mxCell>
      </root>
    </mxGraphModel>
  </diagram>
</mxfile>
